<?xml version="1.0" encoding="UTF-8"?>
<svg id="Layer_1" xmlns="http://www.w3.org/2000/svg" version="1.1" viewBox="0 0 32 32">
  <!-- Generator: Adobe Illustrator 29.1.0, SVG Export Plug-In . SVG Version: 2.1.0 Build 142)  -->
  <defs>
    <style>
      .st0 {
        fill: #34e19a;
      }

      .st1 {
        fill: #876bed;
      }
    </style>
  </defs>
  <path class="st0" d="M10,17.5c-.1-.2-.2-.5-.2-.7h0c0,.4-.3.7-.7.7h-3.7c-.4,0-.7-.3-.7-.7h0c0-.4.3-.7.7-.7h2.9c.3,0,.5,0,.7-.2.2-.1.4-.3.5-.5,0,0,0,0,0,0,.1-.2.2-.5.2-.7v-.2s-.7-.8-.7-.9h0v1h0c0,.4-.3.7-.7.7h-2.9c-.3,0-.5,0-.7.2-.2.1-.4.3-.5.5-.1.2-.2.5-.2.7h0c0,.3,0,.5.2.7.1.2.3.4.5.5.2.1.4.2.7.2h3.8c.2,0,.5,0,.7-.2.1,0,.3-.2.4-.3,0,0-.1-.1-.2-.2,0,0,0,0,0,0Z"/>
  <path class="st1" d="M28,16.8c0-.3,0-.5-.2-.7-.1-.2-.3-.4-.5-.5s-.5-.2-.7-.2h-2.9c-.4,0-.7-.3-.7-.7h0v-1.1c0,0-.7.8-.7.9v.3h0c0,.2,0,.4.2.6,0,0,0,0,0,0,.1.2.3.3.5.5.2.1.5.2.7.2h2.9c.4,0,.7.3.7.7h0c0,.4-.3.7-.7.7h-3.7c-.4,0-.7-.3-.7-.7h0c0-.3,0-.5-.2-.7,0,0-.1-.2-.2-.2-.1-.1-.2-.2-.4-.3,0,0-.1,0-.2-.1-.2,0-.3,0-.5,0h-3.6c-.3,0-.5,0-.7.2-.1,0-.3.2-.4.3,0,0-.1.1-.2.2-.1.2-.2.5-.2.7h0c0,.4-.3.7-.6.7h-3.8c-.4,0-.7-.3-.7-.7h0c0-.4.3-.7.7-.7h3.6s0,0,.1,0h0c0-.2.2-.5.4-.7-.1,0-.3,0-.5,0h-3.6c-.3,0-.5,0-.7.2-.1,0-.3.2-.4.3,0,0-.1.1-.2.2-.1.2-.2.5-.2.7h0c0,.3,0,.5.2.7,0,0,.1.2.2.2.1.1.2.2.4.3.2.1.4.2.7.2h3.8c.1,0,.3,0,.4,0,0,0,.2,0,.2-.1.1,0,.3-.2.4-.3.1.1.2.2.4.3.2.1.4.2.7.2h3.7c.2,0,.3,0,.5,0-.2-.2-.3-.4-.4-.6h-3.8c-.4,0-.7-.3-.7-.7h0c0-.4.3-.7.7-.7h3.6s0,0,.1,0c.3,0,.6.4.6.7h0c0,.3,0,.5.2.7,0,0,.1.2.2.2.1.1.2.2.4.3.2.1.5.2.7.2h3.7c.2,0,.5,0,.7-.2.2-.1.4-.3.5-.5.2-.2.2-.5.2-.7h0s0,0,0,0Z"/>
  <path d="M22.2,16.8"/>
</svg>