<?xml version="1.0" encoding="UTF-8"?>
<svg id="Layer_1" xmlns="http://www.w3.org/2000/svg" version="1.1" viewBox="0 0 1024 1024">
  <!-- Generator: Adobe Illustrator 29.3.1, SVG Export Plug-In . SVG Version: 2.1.0 Build 151)  -->
  <defs>
    <style>
      .st0 {
        fill: #876bed;
        stroke: #000;
        stroke-miterlimit: 10;
      }

      .st1 {
        fill: #fff;
      }

      .st2 {
        fill: #34e19a;
      }
    </style>
  </defs>
  <rect class="st0" x="0" width="1024" height="1024"/>
  <g>
    <path class="st2" d="M536.3,565.3c-9.3-16.1-14.6-34.8-14.6-54.7h0q0-.1,0,0c0,29.5-23.4,53.6-52.7,54.7H190.5c-29.3-1.1-52.7-25.2-52.7-54.7s0,0,0-.1c0-30.2,24.5-54.6,54.7-54.6v-.2h219.4c20,0,38.7-5.4,54.8-14.7,14.5-8.4,26.9-20,36.2-33.8,1.4-2,2.7-4.1,3.9-6.3,9.3-16.1,14.7-34.9,14.7-54.8s-1.2-16-1.2-16l-53.7-65.3v81.3h0c0,30.2-24.5,54.8-54.8,54.8h-219.3c-20,.1-38.7,5.5-54.8,14.9-16.6,9.6-30.4,23.4-40,40-9.4,16.1-14.8,34.9-14.8,54.8h0c0,20,5.3,38.7,14.6,54.8,9.6,16.7,23.5,30.6,40.2,40.2,14.8,8.6,31.8,13.8,50,14.6,1.6,0,3.3,0,4.9,0s3.3,0,4.9,0h264.4c1.6,0,3.3,0,4.9,0s3.3,0,4.9,0c18.1-.8,35.1-6,49.9-14.6,10.3-6,19.6-13.6,27.4-22.5-4.8-5.5-9.1-11.4-12.8-17.8h0Z"/>
    <path class="st1" d="M914.5,564.5c-2.3.4-4.6.6-7,.7h-278.2c-29.3-1.1-52.7-25.2-52.7-54.7s0,0,0-.1c0-30.2,24.6-54.6,54.8-54.6v-.2h274.2v.2c3,0,6,.3,8.9.8,0-.3.2-.6.3-1,6.3-17.7,15.5-34.1,27.1-48.4-11.4-4-23.6-6.3-36.4-6.3h0c0-.1-54.8-.1-54.8-.1h-219.4c-20,.1-38.7,5.5-54.8,14.8-10.3,6-19.6,13.6-27.4,22.5-4.8,5.4-9,11.3-12.6,17.5-9.4,16.1-14.8,34.9-14.8,54.8h0c0,20.1,5.3,38.7,14.6,54.8,3.7,6.4,8,12.3,12.8,17.8,7.8,8.9,17.1,16.5,27.4,22.5,14.8,8.6,31.8,13.8,49.9,14.6,1.6,0,3.3,0,4.9,0s3.3,0,4.9,0h264.2c1.6,0,3.3,0,4.9,0s3.3,0,4.9,0c11.1-.5,21.7-2.6,31.7-6.2-11.7-14.4-20.9-30.8-27.2-48.7,0-.2-.2-.5-.2-.7h0Z"/>
  </g>
</svg>