<?xml version="1.0" encoding="UTF-8"?>
<svg xmlns="http://www.w3.org/2000/svg" id="Layer_1" version="1.2" viewBox="0 0 512 512" baseProfile="tiny-ps">
  <!-- Generator: Adobe Illustrator 29.1.0, SVG Export Plug-In . SVG Version: 2.1.0 Build 142)  -->
  <defs>
    <style>
      .st0 {
        fill: #fff;
      }

      .st1 {
        fill: #34e19a;
      }

      .st2 {
        fill: #876bed;
      }
    </style>
  </defs>
  <rect class="st2" width="512" height="512"/>
  <g>
    <path class="st1" d="M156.5,283c-2.1-3.6-3.2-7.7-3.2-12h0c0,6.6-5.2,11.7-11.6,12h-61.1c-6.6,0-11.6-5.6-11.6-12h0c0-6.7,5.3-12,12-12h48.1c4.3,0,8.5-1.1,12-3.2,3.2-1.8,5.9-4.3,8-7.5.3-.4.7-1,.8-1.3,2.1-3.6,3.2-7.7,3.2-12v-3.4c.1-.4-11.6-13.3-11.6-14.4h0v17.3h0c0,6.7-5.3,12-12,12h-48.4c-4.3,0-8.5,1.1-12,3.2-3.6,2.1-6.7,5.2-8.8,8.8-2.4,3.8-3.5,7.8-3.5,12.2h0c0,4.3,1.1,8.5,3.2,12,2.1,3.8,5.2,6.7,8.8,8.8,3.2,2,7,3.1,11,3.2h62.3c4.1,0,7.7-1.3,10.9-3.2,2.2-1.3,4.2-2.9,6-4.9-.8-1-1.8-2.4-2.7-3.6Z"/>
    <path class="st0" d="M455.2,271c0-4.3-1.1-8.5-3.2-12-2.1-3.6-5.2-6.7-8.8-8.8s-7.7-3.2-12-3.2h-48.2c-6.7,0-12-5.3-12-12h0v-17.8c0,1.1-12,14.1-12,14.4v5.3h.1c.3,3.6,1.4,7,3.1,9.9.3.4.4,1,.8,1.3,2.1,3.1,4.8,5.7,8,7.5,3.6,2.1,7.7,3.2,12,3.2h48.1c6.7,0,12,5.3,12,12h0c0,6.6-5.2,11.7-11.6,12h-60.7c-6.7,0-12-5.3-12-12h0c0-4.3-1.1-8.5-3.2-12-.8-1.4-1.8-2.7-2.8-3.9-1.8-2-3.8-3.6-6-4.9-1.1-.7-2.4-1.3-3.8-1.8-2.7-1-5.3-1.4-8.2-1.4h-60.4c-4.3,0-8.5,1.1-12,3.2-2.2,1.3-4.3,2.9-6,4.9-1,1.1-2,2.4-2.8,3.9-2.1,3.6-3.2,7.7-3.2,12h0c0,6-4.3,10.9-10.1,11.9h-63.2c-6.6,0-11.6-5.6-11.6-12h0c0-6.7,5.3-12,12-12h60.2c.7,0,1.3,0,2,.1h0c1.3-4.1,3.4-7.7,6-10.8-2.4-.8-5.2-1.3-8-1.3h-60.1c-4.3,0-8.5,1.1-12,3.2-2.2,1.1-4.3,2.8-6,4.8-1,1.1-2,2.4-2.8,3.9-2.1,3.6-3.2,7.7-3.2,12h0c0,4.3,1.1,8.5,3.2,12,.8,1.4,1.8,2.8,2.8,3.9,1.8,2,3.8,3.6,6,4.9,3.2,2,7,3.1,10.9,3.2h62.3c2.4,0,4.8-.7,7-1.3,1.4-.4,2.8-1.1,4.1-2,2.2-1.3,4.2-2.9,6-4.9,1.8,2,3.8,3.6,6,4.9,3.2,2,7,3.1,10.9,3.2h61.2c2.9,0,5.7-.4,8.1-1.4-2.7-3.1-4.6-6.7-5.9-10.6h-62.3c-6.6,0-11.6-5.6-11.6-12h0c0-6.7,5.3-12,12-12h60.1c.8,0,1.4,0,2.2.1,5.6,1,9.8,6,9.8,11.9h0c0,4.3,1.1,8.5,3.2,12,.8,1.4,1.8,2.7,2.8,3.9,1.8,2,3.8,3.6,6,4.9,3.6,2.1,7.7,3.2,12,3.2h61.2c4.1,0,7.7-1.3,10.9-3.2,3.8-2.1,6.7-5.2,8.8-8.8,2.7-3.6,3.8-7.7,3.8-12h0v.3Z"/>
    <path d="M358.9,270.7"/>
  </g>
<title>Title</title></svg>
